<svg xmlns="http://www.w3.org/2000/svg" viewBox="0 0 1512 1078" role="img" aria-label="RAGNAR" preserveAspectRatio="xMidYMid meet">
  <title>RAGNAR</title>
  <g transform="translate(0,1078) scale(0.1,-0.1)" fill="#221a10" stroke="none">
    <path d="M7855 9729 c-609 -42 -1131 -170 -1537 -375 -225 -115 -384 -231 -554 -406 -284 -293 -435 -633 -450 -1013 -7 -171 10 -301 61 -452 46 -137 93 -225 183 -345 217 -289 555 -462 907 -462 117 0 265 20 248 33 -4 4 -36 13 -70 20 -364 71 -670 421 -760 869 -25 123 -25 405 0 522 78 365 280 699 577 952 316 270 694 437 1170 517 494 84 972 61 1347 -64 542 -181 901 -566 1015 -1088 32 -148 32 -443 0 -605 -105 -527 -420 -945 -926 -1233 -427 -243 -990 -399 -1587 -439 -84 -5 -154 -8 -157 -6 -4 5 101 327 236 726 413 1214 569 1583 809 1908 66 89 195 219 257 258 50 31 59 47 24 40 -13 -3 -50 -8 -83 -11 -401 -43 -721 -222 -954 -532 -226 -300 -369 -648 -796 -1923 l-142 -425 -54 0 c-30 0 -144 7 -254 14 -316 22 -577 8 -1089 -59 -394 -51 -612 -70 -870 -77 -243 -6 -249 -6 -242 13 11 27 154 474 253 789 216 690 325 1010 460 1345 4 11 3 12 -6 4 -18 -17 -151 -310 -225 -496 -96 -242 -165 -440 -357 -1023 -94 -286 -178 -542 -188 -570 l-17 -50 -52 -3 c-29 -2 -52 -1 -52 1 0 3 97 294 216 648 236 703 355 1025 475 1282 140 302 255 476 426 645 103 103 104 103 66 96 -21 -4 -78 -20 -128 -36 -326 -108 -585 -313 -798 -634 -191 -287 -278 -506 -774 -1930 l-14 -41 -282 -6 c-172 -3 -331 -11 -407 -21 -466 -61 -818 -202 -1026 -410 -59 -59 -114 -137 -114 -161 0 -3 31 21 69 54 96 82 168 129 296 194 282 141 615 219 995 233 133 5 405 -7 416 -19 8 -8 -284 -792 -438 -1176 -396 -984 -637 -1412 -1003 -1776 -227 -226 -494 -411 -799 -556 -59 -27 -106 -51 -106 -53 0 -15 338 53 521 105 570 161 960 444 1295 939 106 157 181 291 303 540 206 423 393 889 661 1648 l93 262 36 0 c68 0 68 3 -18 -252 -219 -646 -450 -1231 -653 -1658 -155 -323 -351 -636 -523 -835 -91 -104 -88 -111 7 -15 411 417 746 1076 1192 2345 62 176 117 336 123 355 9 34 11 35 53 33 39 -2 50 -9 107 -65 167 -164 284 -365 568 -978 134 -287 288 -593 377 -750 124 -216 376 -575 413 -587 6 -1 20 21 32 50 12 28 53 126 91 217 37 91 78 190 89 221 l21 56 -78 131 c-76 126 -239 419 -445 797 -267 491 -451 719 -700 864 l-64 38 157 12 c192 15 360 43 692 115 400 86 503 99 785 100 205 0 428 -14 443 -29 9 -8 -429 -1300 -623 -1839 -425 -1180 -701 -1602 -1200 -1834 l-50 -23 90 6 c504 34 930 235 1200 565 l57 70 47 -34 c211 -154 524 -280 846 -338 146 -27 456 -31 598 -9 48 7 87 15 85 16 -2 2 -57 8 -123 15 -423 39 -771 205 -1077 513 -49 51 -106 111 -125 135 l-35 42 65 143 c158 346 299 733 634 1742 141 424 257 772 259 773 6 8 182 -70 261 -115 289 -165 534 -405 997 -978 370 -457 482 -593 600 -735 557 -665 1077 -1161 1671 -1594 930 -679 2078 -1236 3114 -1511 139 -37 176 -41 94 -10 -215 81 -711 317 -988 470 -870 481 -1608 1054 -2308 1794 -259 273 -361 385 -672 736 -775 874 -1075 1188 -1380 1446 -287 242 -581 415 -884 520 l-135 46 109 7 c272 17 623 66 880 121 667 144 1239 447 1592 844 441 494 552 1133 290 1656 -261 522 -859 876 -1662 984 -291 39 -697 52 -1000 30z M4327 9355 c-912 -90 -1634 -378 -2088 -834 -288 -290 -439 -589 -456 -901 -24 -471 287 -831 817 -946 131 -29 459 -26 594 4 55 12 101 24 103 26 2 2 -70 3 -159 3 -331 1 -555 81 -738 263 -97 96 -145 177 -182 305 -19 68 -23 102 -22 225 1 123 5 160 27 241 70 256 206 477 437 709 199 200 383 331 650 465 422 212 877 328 1335 342 371 11 699 -49 981 -181 l91 -43 34 31 c19 17 59 52 89 78 l55 47 -37 15 c-112 47 -407 113 -633 142 -178 22 -708 28 -898 9z"/>
  </g>
</svg>
